<?xml version="1.0" encoding="UTF-8" standalone="no"?>
<!-- Created with Inkscape (http://www.inkscape.org/) -->

<svg
   width="49.282871mm"
   height="79.241768mm"
   viewBox="0 0 49.282871 79.241769"
   version="1.1"
   id="svg5"
   xmlns="http://www.w3.org/2000/svg"
   xmlns:svg="http://www.w3.org/2000/svg">
  <defs
     id="defs2" />
  <g
     id="layer1">
    <path
       style="opacity:0.3;fill:#000000;stroke-width:0.264583"
       id="path164"
       d="m 5.7466021,4.7580587 -0.4560533,0 -0.4560533,0 L 5.0625222,4.363105 5.2905488,3.9681513 5.5185754,4.363105 Z"
       transform="matrix(18.007113,0,0,25.121153,-95.265749,-99.699862)" />
    <path
       style="opacity:0.15;fill:#000000;stroke-width:0.264583"
       id="path164-7"
       d="m 5.7466021,4.7580587 -0.4560533,0 -0.4560533,0 L 5.0625222,4.363105 5.2905488,3.9681513 5.5185754,4.363105 Z"
       transform="matrix(18.007113,0,0,25.121153,-78.833769,-99.706242)" />
    <path
       style="opacity:0.55;fill:#000000;stroke-width:0.264583"
       id="path164-6"
       d="m 5.7466021,4.7580587 -0.4560533,0 -0.4560533,0 L 5.0625222,4.363105 5.2905488,3.9681513 5.5185754,4.363105 Z"
       transform="matrix(-18.007113,0,0,-25.121153,103.4795,119.52798)" />
    <path
       style="opacity:0.2;fill:#000000;stroke-width:0.264583"
       id="path164-6-6"
       d="m 5.7466021,4.7580587 -0.4560533,0 -0.4560533,0 L 5.0625222,4.363105 5.2905488,3.9681513 5.5185754,4.363105 Z"
       transform="matrix(-18.007113,0,0,-25.121153,119.907,119.50955)" />
    <path
       style="opacity:0.35;fill:#000000;stroke-width:0.264583"
       id="path164-5"
       d="m 5.7466021,4.7580587 -0.4560533,0 -0.4560533,0 L 5.0625222,4.363105 5.2905488,3.9681513 5.5185754,4.363105 Z"
       transform="matrix(18.007113,0,0,25.121153,-62.419109,-99.707442)" />
    <path
       style="opacity:0.3;fill:#000000;stroke-width:0.264583"
       id="path164-7-4"
       d="m 5.7466021,4.7580587 -0.4560533,0 -0.4560533,0 L 5.0625222,4.363105 5.2905488,3.9681513 5.5185754,4.363105 Z"
       transform="matrix(18.007113,0,0,25.121153,-45.987138,-99.713822)" />
    <path
       style="opacity:0.45;fill:#000000;stroke-width:0.264583"
       id="path164-6-0"
       d="m 5.7466021,4.7580587 -0.4560533,0 -0.4560533,0 L 5.0625222,4.363105 5.2905488,3.9681513 5.5185754,4.363105 Z"
       transform="matrix(-18.007113,0,0,-25.121153,136.32613,119.5204)" />
    <path
       style="opacity:0.5;fill:#000000;stroke-width:0.264583"
       id="path164-6-6-6"
       d="m 5.7466021,4.7580587 -0.4560533,0 -0.4560533,0 L 5.0625222,4.363105 5.2905488,3.9681513 5.5185754,4.363105 Z"
       transform="matrix(-18.007113,0,0,-25.121153,152.75363,119.50197)" />
    <path
       style="opacity:0.4;fill:#000000;stroke-width:0.264583"
       id="path164-7-9"
       d="m 5.7466021,4.7580587 -0.4560533,0 -0.4560533,0 L 5.0625222,4.363105 5.2905488,3.9681513 5.5185754,4.363105 Z"
       transform="matrix(18.007113,0,0,25.121153,-87.017989,-79.887704)" />
    <path
       style="opacity:0.1;fill:#000000;stroke-width:0.264583"
       id="path164-6-67"
       d="m 5.7466021,4.7580587 -0.4560533,0 -0.4560533,0 L 5.0625222,4.363105 5.2905488,3.9681513 5.5185754,4.363105 Z"
       transform="matrix(-18.007113,0,0,-25.121153,95.295282,139.34651)" />
    <path
       style="opacity:0.3;fill:#000000;stroke-width:0.264583"
       id="path164-6-6-61"
       d="m 5.7466021,4.7580587 -0.4560533,0 -0.4560533,0 L 5.0625222,4.363105 5.2905488,3.9681513 5.5185754,4.363105 Z"
       transform="matrix(-18.007113,0,0,-25.121153,111.72278,139.35393)" />
    <path
       style="opacity:0.25;fill:#000000;stroke-width:0.264583"
       id="path164-5-2"
       d="m 5.7466021,4.7580587 -0.4560533,0 -0.4560533,0 L 5.0625222,4.363105 5.2905488,3.9681513 5.5185754,4.363105 Z"
       transform="matrix(18.007113,0,0,25.121153,-70.603329,-79.863064)" />
    <path
       style="opacity:0.3;fill:#000000;stroke-width:0.264583"
       id="path164-7-4-4"
       d="m 5.7466021,4.7580587 -0.4560533,0 -0.4560533,0 L 5.0625222,4.363105 5.2905488,3.9681513 5.5185754,4.363105 Z"
       transform="matrix(18.007113,0,0,25.121153,-54.171359,-79.869434)" />
    <path
       style="opacity:0.5;fill:#000000;stroke-width:0.264583"
       id="path164-6-0-4"
       d="m 5.7466021,4.7580587 -0.4560533,0 -0.4560533,0 L 5.0625222,4.363105 5.2905488,3.9681513 5.5185754,4.363105 Z"
       transform="matrix(-18.007113,0,0,-25.121153,128.14192,139.36478)" />
    <path
       style="opacity:0.1;fill:#000000;stroke-width:0.264583"
       id="path164-6-6-6-0"
       d="m 5.7466021,4.7580587 -0.4560533,0 -0.4560533,0 L 5.0625222,4.363105 5.2905488,3.9681513 5.5185754,4.363105 Z"
       transform="matrix(-18.007113,0,0,-25.121153,144.56942,139.34635)" />
    <path
       style="opacity:0.25;fill:#000000;stroke-width:0.264583"
       id="path164-3"
       d="m 5.7466021,4.7580587 -0.4560533,0 -0.4560533,0 L 5.0625222,4.363105 5.2905488,3.9681513 5.5185754,4.363105 Z"
       transform="matrix(18.007113,0,0,25.121153,-95.269789,-60.106524)" />
    <path
       style="opacity:0.5;fill:#000000;stroke-width:0.264583"
       id="path164-7-1"
       d="m 5.7466021,4.7580587 -0.4560533,0 -0.4560533,0 L 5.0625222,4.363105 5.2905488,3.9681513 5.5185754,4.363105 Z"
       transform="matrix(18.007113,0,0,25.121153,-78.837819,-60.112894)" />
    <path
       style="opacity:0.1;fill:#000000;stroke-width:0.264583"
       id="path164-6-5"
       d="m 5.7466021,4.7580587 -0.4560533,0 -0.4560533,0 L 5.0625222,4.363105 5.2905488,3.9681513 5.5185754,4.363105 Z"
       transform="matrix(-18.007113,0,0,-25.121153,103.47546,159.12132)" />
    <path
       style="opacity:0.2;fill:#000000;stroke-width:0.264583"
       id="path164-6-6-8"
       d="m 5.7466021,4.7580587 -0.4560533,0 -0.4560533,0 L 5.0625222,4.363105 5.2905488,3.9681513 5.5185754,4.363105 Z"
       transform="matrix(-18.007113,0,0,-25.121153,119.90296,159.17601)" />
    <path
       style="opacity:0.33;fill:#000000;stroke-width:0.264583"
       id="path164-5-5"
       d="m 5.7466021,4.7580587 -0.4560533,0 -0.4560533,0 L 5.0625222,4.363105 5.2905488,3.9681513 5.5185754,4.363105 Z"
       transform="matrix(18.007113,0,0,25.121153,-62.423159,-60.040984)" />
    <path
       style="opacity:0.25;fill:#000000;stroke-width:0.264583"
       id="path164-7-4-0"
       d="m 5.7466021,4.7580587 -0.4560533,0 -0.4560533,0 L 5.0625222,4.363105 5.2905488,3.9681513 5.5185754,4.363105 Z"
       transform="matrix(18.007113,0,0,25.121153,-45.991181,-60.047364)" />
    <path
       style="opacity:0.1;fill:#000000;stroke-width:0.264583"
       id="path164-6-0-6"
       d="m 5.7466021,4.7580587 -0.4560533,0 -0.4560533,0 L 5.0625222,4.363105 5.2905488,3.9681513 5.5185754,4.363105 Z"
       transform="matrix(-18.007113,0,0,-25.121153,136.32209,159.18686)" />
    <path
       style="opacity:0.5;fill:#000000;stroke-width:0.264583"
       id="path164-6-6-6-9"
       d="m 5.7466021,4.7580587 -0.4560533,0 -0.4560533,0 L 5.0625222,4.363105 5.2905488,3.9681513 5.5185754,4.363105 Z"
       transform="matrix(-18.007113,0,0,-25.121153,152.74959,159.16843)" />
    <path
       style="opacity:0.25;fill:#000000;stroke-width:0.264583"
       id="path164-7-9-9"
       d="m 5.7466021,4.7580587 -0.4560533,0 -0.4560533,0 L 5.0625222,4.363105 5.2905488,3.9681513 5.5185754,4.363105 Z"
       transform="matrix(18.007113,0,0,25.121153,-87.022029,-40.294354)" />
    <path
       style="opacity:0.5;fill:#000000;stroke-width:0.264583"
       id="path164-6-67-0"
       d="m 5.7466021,4.7580587 -0.4560533,0 -0.4560533,0 L 5.0625222,4.363105 5.2905488,3.9681513 5.5185754,4.363105 Z"
       transform="matrix(-18.007113,0,0,-25.121153,95.291242,178.93986)" />
    <path
       style="opacity:0.1;fill:#000000;stroke-width:0.264583"
       id="path164-6-6-61-1"
       d="m 5.7466021,4.7580587 -0.4560533,0 -0.4560533,0 L 5.0625222,4.363105 5.2905488,3.9681513 5.5185754,4.363105 Z"
       transform="matrix(-18.007113,0,0,-25.121153,111.71874,178.94728)" />
    <path
       style="opacity:0.5;fill:#000000;stroke-width:0.264583"
       id="path164-5-2-7"
       d="m 5.7466021,4.7580587 -0.4560533,0 -0.4560533,0 L 5.0625222,4.363105 5.2905488,3.9681513 5.5185754,4.363105 Z"
       transform="matrix(18.007113,0,0,25.121153,-70.607369,-40.269714)" />
    <path
       style="opacity:0.15;fill:#000000;stroke-width:0.264583"
       id="path164-7-4-4-0"
       d="m 5.7466021,4.7580587 -0.4560533,0 -0.4560533,0 L 5.0625222,4.363105 5.2905488,3.9681513 5.5185754,4.363105 Z"
       transform="matrix(18.007113,0,0,25.121153,-54.175399,-40.228824)" />
    <path
       style="opacity:0.25;fill:#000000;stroke-width:0.264583"
       id="path164-6-0-4-1"
       d="m 5.7466021,4.7580587 -0.4560533,0 -0.4560533,0 L 5.0625222,4.363105 5.2905488,3.9681513 5.5185754,4.363105 Z"
       transform="matrix(-18.007113,0,0,-25.121153,128.13787,179.0054)" />
    <path
       style="opacity:0.5;fill:#000000;stroke-width:0.264583"
       id="path164-6-6-6-0-5"
       d="m 5.7466021,4.7580587 -0.4560533,0 -0.4560533,0 L 5.0625222,4.363105 5.2905488,3.9681513 5.5185754,4.363105 Z"
       transform="matrix(-18.007113,0,0,-25.121153,144.56537,179.01282)" />
  </g>
</svg>
