<?xml version="1.0" encoding="UTF-8"?>
<!DOCTYPE svg PUBLIC "-//W3C//DTD SVG 1.1//EN" "http://www.w3.org/Graphics/SVG/1.1/DTD/svg11.dtd">
<svg xmlns="http://www.w3.org/2000/svg" version="1.1" width="200px" height="190px" style="shape-rendering:geometricPrecision; text-rendering:geometricPrecision; image-rendering:optimizeQuality; fill-rule:evenodd; clip-rule:evenodd" xmlns:xlink="http://www.w3.org/1999/xlink">
<g><path style="opacity:0.972" fill="#fbda6a" d="M 98.5,-0.5 C 98.8333,-0.5 99.1667,-0.5 99.5,-0.5C 99.5,34.1667 99.5,68.8333 99.5,103.5C 66.1464,93.6034 33.1464,82.9367 0.5,71.5C 23.1637,68.0236 45.8304,64.3569 68.5,60.5C 78.783,40.2677 88.783,19.9344 98.5,-0.5 Z"/></g>
<g><path style="opacity:0.984" fill="#fec701" d="M 99.5,-0.5 C 99.8333,-0.5 100.167,-0.5 100.5,-0.5C 110.217,19.9344 120.217,40.2677 130.5,60.5C 153.523,64.2646 176.523,67.9313 199.5,71.5C 199.5,71.8333 199.5,72.1667 199.5,72.5C 166.962,82.235 134.629,92.5683 102.5,103.5C 101.5,103.5 100.5,103.5 99.5,103.5C 99.5,68.8333 99.5,34.1667 99.5,-0.5 Z"/></g>
<g><path style="opacity:0.973" fill="#f9ab1d" d="M -0.5,71.5 C -0.166667,71.5 0.166667,71.5 0.5,71.5C 33.1464,82.9367 66.1464,93.6034 99.5,103.5C 100.5,103.5 101.5,103.5 102.5,103.5C 102.158,104.338 101.492,104.672 100.5,104.5C 79.9891,130.457 60.1557,157.124 41,184.5C 39.9609,185.71 38.7942,186.71 37.5,187.5C 40.8428,165.618 44.5095,143.785 48.5,122C 32.9757,104.976 16.6424,88.8089 -0.5,73.5C -0.5,72.8333 -0.5,72.1667 -0.5,71.5 Z"/></g>
<g><path style="opacity:0.983" fill="#f99e00" d="M 199.5,72.5 C 199.5,72.8333 199.5,73.1667 199.5,73.5C 182.898,88.6002 166.731,104.267 151,120.5C 154.06,142.86 157.56,165.193 161.5,187.5C 140.812,160.138 120.479,132.471 100.5,104.5C 101.492,104.672 102.158,104.338 102.5,103.5C 134.629,92.5683 166.962,82.235 199.5,72.5 Z"/></g>
<g><path style="opacity:0.983" fill="#f98a02" d="M 100.5,104.5 C 120.479,132.471 140.812,160.138 161.5,187.5C 161.5,188.167 161.5,188.833 161.5,189.5C 160.5,189.5 159.5,189.5 158.5,189.5C 139.332,178.414 119.665,168.08 99.5,158.5C 87.9699,164.432 76.3032,170.098 64.5,175.5C 61.0078,176.41 58.0078,178.076 55.5,180.5C 51.8178,183.008 47.8178,185.008 43.5,186.5C 41.326,186.75 39.6594,187.75 38.5,189.5C 37.8333,189.5 37.1667,189.5 36.5,189.5C 36.8333,188.833 37.1667,188.167 37.5,187.5C 38.7942,186.71 39.9609,185.71 41,184.5C 60.1557,157.124 79.9891,130.457 100.5,104.5 Z"/></g>
<g><path style="opacity:0.149" fill="#fec501" d="M 64.5,175.5 C 61.9922,177.924 58.9922,179.59 55.5,180.5C 58.0078,178.076 61.0078,176.41 64.5,175.5 Z"/></g>
<g><path style="opacity:0.322" fill="#feca00" d="M 43.5,186.5 C 42.6935,187.728 41.6935,188.728 40.5,189.5C 39.8333,189.5 39.1667,189.5 38.5,189.5C 39.6594,187.75 41.326,186.75 43.5,186.5 Z"/></g>
</svg>
