<?xml version="1.0" encoding="UTF-8"?>
<!DOCTYPE svg PUBLIC "-//W3C//DTD SVG 1.1//EN" "http://www.w3.org/Graphics/SVG/1.1/DTD/svg11.dtd">
<svg xmlns="http://www.w3.org/2000/svg" version="1.1" width="113px" height="113px" style="shape-rendering:geometricPrecision; text-rendering:geometricPrecision; image-rendering:optimizeQuality; fill-rule:evenodd; clip-rule:evenodd" xmlns:xlink="http://www.w3.org/1999/xlink">
<g><path style="opacity:0.989" fill="#f4f4f4" d="M 37.5,34.5 C 37.427,36.0269 38.0937,37.0269 39.5,37.5C 37.4957,47.4469 38.329,57.1136 42,66.5C 50.6273,78.0207 59.6273,78.354 69,67.5C 73.412,57.2278 74.7453,46.5612 73,35.5C 78.3438,33.5767 83.1771,30.7433 87.5,27C 89.7008,26.1751 91.5341,26.6751 93,28.5C 103.523,44.0251 102.856,59.0251 91,73.5C 72.1701,92.6649 51.3368,95.1649 28.5,81C 20.3586,74.5326 14.8586,66.3659 12,56.5C 10.2993,45.5846 12.966,35.9179 20,27.5C 21.3876,26.4464 22.8876,26.2797 24.5,27C 28.2346,30.5341 32.568,33.0341 37.5,34.5 Z"/></g>
<g><path style="opacity:0.514" fill="#868686" d="M 37.5,34.5 C 38.9063,34.9731 39.573,35.9731 39.5,37.5C 38.0937,37.0269 37.427,36.0269 37.5,34.5 Z"/></g>
<g><path style="opacity:0.977" fill="#efefef" d="M 51.5,37.5 C 54.1873,37.3359 56.854,37.5026 59.5,38C 61.3333,38.5 62.5,39.6667 63,41.5C 64.2754,48.8206 63.4421,55.8206 60.5,62.5C 54.537,66.6147 50.7036,64.948 49,57.5C 48.3333,52.5 48.3333,47.5 49,42.5C 49.3661,40.5483 50.1995,38.8816 51.5,37.5 Z"/></g>
</svg>
