<?xml version="1.0" encoding="UTF-8"?>
<!DOCTYPE svg PUBLIC "-//W3C//DTD SVG 1.1//EN" "http://www.w3.org/Graphics/SVG/1.1/DTD/svg11.dtd">
<svg xmlns="http://www.w3.org/2000/svg" version="1.1" width="113px" height="113px" style="shape-rendering:geometricPrecision; text-rendering:geometricPrecision; image-rendering:optimizeQuality; fill-rule:evenodd; clip-rule:evenodd" xmlns:xlink="http://www.w3.org/1999/xlink">
<g><path style="opacity:0.98" fill="#f8f8f8" d="M 45.5,6.5 C 46.1174,6.61071 46.6174,6.94404 47,7.5C 48.3503,13.2894 50.017,18.9561 52,24.5C 55.3333,25.8333 58.6667,25.8333 62,24.5C 63.3961,18.3403 65.2294,12.3403 67.5,6.5C 67.8333,6.83333 68.1667,7.16667 68.5,7.5C 71.2975,15.7274 73.7975,24.0607 76,32.5C 84.1751,44.2381 85.1751,56.5714 79,69.5C 76.3847,73.7829 73.3847,77.7829 70,81.5C 69.2902,87.8948 68.2902,94.2281 67,100.5C 60.6181,106.741 53.9514,107.074 47,101.5C 45.7404,94.5199 44.407,87.5199 43,80.5C 28.5888,65.3876 26.9222,49.0543 38,31.5C 39.8064,22.9178 42.3064,14.5845 45.5,6.5 Z M 35.5,52.5 C 37.9099,52.9209 39.7432,54.2542 41,56.5C 43.7545,61.0077 46.2545,65.6743 48.5,70.5C 40.6613,71.5195 35.9946,68.0195 34.5,60C 34.9172,57.5021 35.2505,55.0021 35.5,52.5 Z M 77.5,61.5 C 76.6618,61.8417 76.3284,62.5084 76.5,63.5C 75.0576,69.2811 71.391,71.9478 65.5,71.5C 67.8406,64.4968 71.5072,58.1634 76.5,52.5C 77.4841,55.4281 77.8174,58.4281 77.5,61.5 Z"/></g>
<g><path style="opacity:0.977" fill="#f7f7f7" d="M 12.5,40.5 C 13.3764,40.3691 14.0431,40.7025 14.5,41.5C 15.2105,44.6731 16.3771,47.6731 18,50.5C 23.5208,57.0424 27.0208,64.5424 28.5,73C 26.8869,78.1156 24.2203,82.6156 20.5,86.5C 8.43679,72.9278 5.77013,57.5945 12.5,40.5 Z"/></g>
<g><path style="opacity:0.978" fill="#f5f5f5" d="M 98.5,40.5 C 99.5,40.5 100.5,40.5 101.5,40.5C 107.584,57.4726 104.917,72.8059 93.5,86.5C 91.5283,85.6948 90.0283,84.3615 89,82.5C 87.2398,79.3107 85.7398,75.9773 84.5,72.5C 86.3811,64.3372 89.8811,57.0039 95,50.5C 96.7818,47.3681 97.9484,44.0347 98.5,40.5 Z"/></g>
<g><path style="opacity:0.133" fill="#535353" d="M 77.5,61.5 C 79.0311,62.9245 78.6977,63.5912 76.5,63.5C 76.3284,62.5084 76.6618,61.8417 77.5,61.5 Z"/></g>
</svg>
