<?xml version="1.0" encoding="UTF-8"?>
<!DOCTYPE svg PUBLIC "-//W3C//DTD SVG 1.1//EN" "http://www.w3.org/Graphics/SVG/1.1/DTD/svg11.dtd">
<svg xmlns="http://www.w3.org/2000/svg" version="1.1" width="113px" height="113px" style="shape-rendering:geometricPrecision; text-rendering:geometricPrecision; image-rendering:optimizeQuality; fill-rule:evenodd; clip-rule:evenodd" xmlns:xlink="http://www.w3.org/1999/xlink">
<g><path style="opacity:0.988" fill="#f9f9f9" d="M 51.5,100.5 C 50.6618,100.158 50.3284,99.4916 50.5,98.5C 51.8915,93.156 53.3915,87.8226 55,82.5C 55.6667,80.8333 55.6667,79.1667 55,77.5C 49.4555,71.9651 43.2889,67.1318 36.5,63C 33.7185,60.5904 31.3852,57.7571 29.5,54.5C 36.7089,40.5731 45.0422,27.4064 54.5,15C 57.2567,14.4163 59.9234,14.7496 62.5,16C 70.2233,19.6118 77.39,24.1118 84,29.5C 84.6667,30.5 84.6667,31.5 84,32.5C 77.9261,39.6511 72.0928,46.9845 66.5,54.5C 69.3047,59.7519 73.3047,63.9186 78.5,67C 79.8721,68.2419 80.8721,69.7419 81.5,71.5C 71.7832,81.5517 61.7832,91.2183 51.5,100.5 Z"/></g>
<g><path style="opacity:0.235" fill="#5b5b5b" d="M 50.5,98.5 C 50.3284,99.4916 50.6618,100.158 51.5,100.5C 50.6977,101.885 50.0311,101.718 49.5,100C 49.5699,99.2352 49.9033,98.7352 50.5,98.5 Z"/></g>
</svg>
