<?xml version="1.0" encoding="UTF-8"?>
<!DOCTYPE svg PUBLIC "-//W3C//DTD SVG 1.1//EN" "http://www.w3.org/Graphics/SVG/1.1/DTD/svg11.dtd">
<svg xmlns="http://www.w3.org/2000/svg" version="1.1" width="113px" height="113px" style="shape-rendering:geometricPrecision; text-rendering:geometricPrecision; image-rendering:optimizeQuality; fill-rule:evenodd; clip-rule:evenodd" xmlns:xlink="http://www.w3.org/1999/xlink">
<g><path style="opacity:0.994" fill="#f6f6f6" d="M 53.5,29.5 C 53.62,30.5862 54.2867,31.2528 55.5,31.5C 56.7133,31.2528 57.38,30.5862 57.5,29.5C 61.4377,23.1917 67.1044,19.3584 74.5,18C 97.4297,11.9722 104.596,20.1388 96,42.5C 94.3134,48.5076 90.8134,53.0076 85.5,56C 83.4164,57.5007 82.0831,59.5007 81.5,62C 84.8591,67.2296 85.6924,72.7296 84,78.5C 83.2496,79.1258 82.4162,79.6258 81.5,80C 76.5504,80.2624 71.7171,80.429 67,80.5C 66.9871,85.2733 67.8204,89.94 69.5,94.5C 68.846,96.1151 68.346,97.7818 68,99.5C 66.4126,100.727 65.0793,100.394 64,98.5C 61.4128,93.7391 59.4128,88.7391 58,83.5C 57,82.5 56,81.5 55,80.5C 52.8167,86.0469 50.8167,91.7135 49,97.5C 45.491,101.67 43.3243,101.003 42.5,95.5C 43.5432,90.4626 44.3765,85.4626 45,80.5C 40.6008,80.3074 36.1008,80.1407 31.5,80C 28.0398,79.7048 26.0398,77.8714 25.5,74.5C 26.1248,70.6983 27.1248,67.0316 28.5,63.5C 29.5862,63.38 30.2528,62.7133 30.5,61.5C 30.4573,60.5836 30.1239,59.9169 29.5,59.5C 26.1646,56.3995 22.6646,53.3995 19,50.5C 13.631,40.7088 11.9644,30.3754 14,19.5C 17.0008,17.0216 20.5008,16.0216 24.5,16.5C 34.264,16.268 42.9307,19.1014 50.5,25C 52.1412,26.129 53.1412,27.629 53.5,29.5 Z M 54.5,41.5 C 58.8049,44.3229 63.1382,47.1563 67.5,50C 68.5171,51.0495 68.6838,52.2161 68,53.5C 61.9345,58.6919 55.1011,59.8586 47.5,57C 44.8975,55.4464 43.7308,53.2798 44,50.5C 48.4916,48.5263 51.9916,45.5263 54.5,41.5 Z"/></g>
<g><path style="opacity:0.165" fill="#646464" d="M 53.5,29.5 C 54.8333,30.8333 56.1667,30.8333 57.5,29.5C 57.38,30.5862 56.7133,31.2528 55.5,31.5C 54.2867,31.2528 53.62,30.5862 53.5,29.5 Z"/></g>
<g><path style="opacity:0.788" fill="#7a7a7a" d="M 29.5,59.5 C 30.1239,59.9169 30.4573,60.5836 30.5,61.5C 30.2528,62.7133 29.5862,63.38 28.5,63.5C 29.2341,62.2921 29.5674,60.9587 29.5,59.5 Z"/></g>
</svg>
