<?xml version="1.0" encoding="UTF-8"?>
<!DOCTYPE svg PUBLIC "-//W3C//DTD SVG 1.1//EN" "http://www.w3.org/Graphics/SVG/1.1/DTD/svg11.dtd">
<svg xmlns="http://www.w3.org/2000/svg" version="1.1" width="113px" height="113px" style="shape-rendering:geometricPrecision; text-rendering:geometricPrecision; image-rendering:optimizeQuality; fill-rule:evenodd; clip-rule:evenodd" xmlns:xlink="http://www.w3.org/1999/xlink">
<g><path style="opacity:0.983" fill="#f7f7f7" d="M 33.5,87.5 C 33.1583,88.3382 32.4916,88.6716 31.5,88.5C 29.1904,85.8981 27.3571,82.8981 26,79.5C 23.5838,61.004 29.9171,46.3373 45,35.5C 47.7226,32.4432 50.056,29.1099 52,25.5C 52.7078,20.371 52.2078,15.371 50.5,10.5C 62.9761,10.8079 68.4761,17.1412 67,29.5C 65.4601,34.6207 63.6268,39.6207 61.5,44.5C 62.0124,46.8838 62.6791,49.2172 63.5,51.5C 64.2739,52.7112 65.1072,52.7112 66,51.5C 66.5154,44.7596 70.0154,40.7596 76.5,39.5C 76.3354,42.5184 76.502,45.5184 77,48.5C 81.7815,53.9539 85.7815,59.9539 89,66.5C 91.5677,82.534 85.401,93.7007 70.5,100C 68.0982,100.814 65.7649,100.647 63.5,99.5C 69.0091,95.4536 70.8424,90.1203 69,83.5C 63.7549,77.2505 58.0882,71.2505 52,65.5C 48.9942,60.2755 46.4942,54.9421 44.5,49.5C 36.1715,56.8385 32.1715,66.1718 32.5,77.5C 32.7238,80.8547 33.0572,84.188 33.5,87.5 Z"/></g>
<g><path style="opacity:0.369" fill="#6d6d6d" d="M 33.5,87.5 C 34.8561,91.0412 34.1895,91.3745 31.5,88.5C 32.4916,88.6716 33.1583,88.3382 33.5,87.5 Z"/></g>
</svg>
