<?xml version="1.0" encoding="UTF-8"?>
<!DOCTYPE svg PUBLIC "-//W3C//DTD SVG 1.1//EN" "http://www.w3.org/Graphics/SVG/1.1/DTD/svg11.dtd">
<svg xmlns="http://www.w3.org/2000/svg" version="1.1" width="113px" height="113px" style="shape-rendering:geometricPrecision; text-rendering:geometricPrecision; image-rendering:optimizeQuality; fill-rule:evenodd; clip-rule:evenodd" xmlns:xlink="http://www.w3.org/1999/xlink">
<g><path style="opacity:0.991" fill="#f7f7f7" d="M 64.5,49.5 C 63.3569,49.9081 62.3569,50.5748 61.5,51.5C 64.6447,52.8032 67.6447,52.8032 70.5,51.5C 75.7323,49.8586 81.0657,48.5252 86.5,47.5C 88.9212,49.1756 89.0879,51.1756 87,53.5C 79.0331,60.7328 69.8665,65.7328 59.5,68.5C 58.6236,68.3691 57.9569,68.7025 57.5,69.5C 60.3092,70.8003 62.9759,70.8003 65.5,69.5C 67.8568,69.3367 70.1902,69.5034 72.5,70C 73.8602,71.9376 73.5268,73.6043 71.5,75C 67.5,77 63.5,79 59.5,81C 52.0234,81.6902 44.69,83.0235 37.5,85C 32.8173,91.3418 27.8173,97.3418 22.5,103C 21.5509,103.617 20.7175,103.451 20,102.5C 19.8333,100.167 19.6667,97.8333 19.5,95.5C 21.6305,78.6638 25.4639,62.3304 31,46.5C 33.147,41.5398 35.8136,36.8731 39,32.5C 41.4689,30.3485 44.3022,28.8485 47.5,28C 54.8791,26.5404 62.2124,24.8738 69.5,23C 79.9784,18.7198 90.6451,15.3865 101.5,13C 103.899,14.9596 104.065,17.1263 102,19.5C 92.8746,33.7996 80.3746,43.7996 64.5,49.5 Z"/></g>
<g><path style="opacity:0.149" fill="#686868" d="M 64.5,49.5 C 65.9179,51.3079 67.9179,51.9746 70.5,51.5C 67.6447,52.8032 64.6447,52.8032 61.5,51.5C 62.3569,50.5748 63.3569,49.9081 64.5,49.5 Z"/></g>
<g><path style="opacity:0.4" fill="#868686" d="M 59.5,68.5 C 61.2646,69.4614 63.2646,69.7947 65.5,69.5C 62.9759,70.8003 60.3092,70.8003 57.5,69.5C 57.9569,68.7025 58.6236,68.3691 59.5,68.5 Z"/></g>
</svg>
