<?xml version="1.0" encoding="UTF-8"?>
<!DOCTYPE svg PUBLIC "-//W3C//DTD SVG 1.1//EN" "http://www.w3.org/Graphics/SVG/1.1/DTD/svg11.dtd">
<svg xmlns="http://www.w3.org/2000/svg" version="1.1" width="113px" height="113px" style="shape-rendering:geometricPrecision; text-rendering:geometricPrecision; image-rendering:optimizeQuality; fill-rule:evenodd; clip-rule:evenodd" xmlns:xlink="http://www.w3.org/1999/xlink">
<g><path style="opacity:0.98" fill="#f9f9f9" d="M 49.5,18.5 C 66.0271,16.5132 78.1938,22.8465 86,37.5C 88.2271,44.3133 89.3937,51.3133 89.5,58.5C 100.461,57.4598 106.128,62.4598 106.5,73.5C 104.131,73.1489 101.797,72.9822 99.5,73C 97.1255,75.039 95.1255,77.3723 93.5,80C 89.984,82.0572 86.984,81.3906 84.5,78C 83.5,77.3333 82.5,77.3333 81.5,78C 77.4062,83.5167 73.0729,88.85 68.5,94C 64.8938,96.9685 60.8938,99.1352 56.5,100.5C 52.5188,99.3659 48.8521,97.5325 45.5,95C 40.4557,89.6244 35.789,83.9578 31.5,78C 28.5405,78.5662 25.7071,79.7329 23,81.5C 18.9002,79.7348 15.7335,76.9014 13.5,73C 11.5116,72.8195 9.51162,72.9862 7.5,73.5C 7.28104,67.4378 9.61437,62.6045 14.5,59C 17.8035,58.7848 20.9701,58.6181 24,58.5C 23.4497,45.4744 27.6164,34.3077 36.5,25C 40.7708,22.5325 45.1041,20.3659 49.5,18.5 Z M 40.5,35.5 C 45.2671,35.9786 48.1004,38.6452 49,43.5C 50.0234,47.3169 49.5234,50.8169 47.5,54C 44.7202,54.2692 42.5536,53.1025 41,50.5C 37.2573,45.3232 37.0906,40.3232 40.5,35.5 Z M 68.5,36.5 C 73.1456,35.6285 75.479,37.4618 75.5,42C 75.0242,47.9769 72.0242,52.1436 66.5,54.5C 64.1273,53.4503 63.1273,51.617 63.5,49C 63.9373,44.2991 65.6039,40.1324 68.5,36.5 Z"/></g>
</svg>
