<?xml version="1.0" encoding="UTF-8"?>
<!DOCTYPE svg PUBLIC "-//W3C//DTD SVG 1.1//EN" "http://www.w3.org/Graphics/SVG/1.1/DTD/svg11.dtd">
<svg xmlns="http://www.w3.org/2000/svg" version="1.1" width="113px" height="113px" style="shape-rendering:geometricPrecision; text-rendering:geometricPrecision; image-rendering:optimizeQuality; fill-rule:evenodd; clip-rule:evenodd" xmlns:xlink="http://www.w3.org/1999/xlink">
<g><path style="opacity:0.982" fill="#f1f1f1" d="M 66.5,14.5 C 67.4959,14.4142 68.3292,14.7476 69,15.5C 69.1566,28.2498 68.1566,40.9165 66,53.5C 62.4682,62.8967 58.1348,71.8967 53,80.5C 52.0922,82.4386 50.5922,83.4386 48.5,83.5C 49.3447,69.7642 50.8447,56.0976 53,42.5C 57.0313,32.8863 61.5313,23.5529 66.5,14.5 Z"/></g>
<g><path style="opacity:0.987" fill="#f3f3f3" d="M 40.5,29.5 C 43.7343,29.2366 45.0676,30.7366 44.5,34C 42.1674,53.1589 40.0007,72.3256 38,91.5C 37.0975,92.7014 35.9308,93.5348 34.5,94C 28.5,94.6667 22.5,94.6667 16.5,94C 15.3759,93.1612 14.7092,91.9945 14.5,90.5C 21.2701,69.3003 29.9368,48.9669 40.5,29.5 Z"/></g>
<g><path style="opacity:0.988" fill="#f5f5f5" d="M 88.5,32.5 C 90.3878,34.9878 91.0545,37.9878 90.5,41.5C 88.9199,58.0634 86.0866,74.3968 82,90.5C 78.5015,94.0329 74.1681,95.3662 69,94.5C 65.8333,94.3333 62.6667,94.1667 59.5,94C 58.1955,93.196 57.5288,92.0293 57.5,90.5C 63.3918,77.716 69.5585,65.0493 76,52.5C 79.428,45.2973 83.5947,38.6306 88.5,32.5 Z"/></g>
<g><path style="opacity:0.251" fill="#646464" d="M 90.5,41.5 C 91.0545,37.9878 90.3878,34.9878 88.5,32.5C 89.0076,30.7673 89.841,30.434 91,31.5C 91.8075,35.0267 91.6408,38.3601 90.5,41.5 Z"/></g>
</svg>
