<?xml version="1.0" encoding="UTF-8"?>
<!DOCTYPE svg PUBLIC "-//W3C//DTD SVG 1.1//EN" "http://www.w3.org/Graphics/SVG/1.1/DTD/svg11.dtd">
<svg xmlns="http://www.w3.org/2000/svg" version="1.1" width="113px" height="113px" style="shape-rendering:geometricPrecision; text-rendering:geometricPrecision; image-rendering:optimizeQuality; fill-rule:evenodd; clip-rule:evenodd" xmlns:xlink="http://www.w3.org/1999/xlink">
<g><path style="opacity:0.979" fill="#ececec" d="M 29.5,13.5 C 30.9305,13.4208 32.2638,13.7542 33.5,14.5C 34.6616,19.1313 34.8283,23.798 34,28.5C 22.6574,32.1709 17.9907,28.1709 20,16.5C 23.019,14.9426 26.1856,13.9426 29.5,13.5 Z"/></g>
<g><path style="opacity:0.969" fill="#f5f5f5" d="M 80.5,25.5 C 83.7766,25.2161 86.9433,25.5495 90,26.5C 92.3741,36.4727 89.0408,39.4727 80,35.5C 79.2534,32.0764 79.42,28.7431 80.5,25.5 Z"/></g>
<g><path style="opacity:0.965" fill="#e5e5e5" d="M 43.5,34.5 C 50.352,34.2806 52.352,37.1139 49.5,43C 42.1879,43.8714 40.1879,41.0381 43.5,34.5 Z"/></g>
<g><path style="opacity:0.991" fill="#f9f9f9" d="M 52.5,52.5 C 55.8499,52.335 59.1832,52.5017 62.5,53C 75.2217,58.1134 87.7217,63.6134 100,69.5C 100.667,70.8333 100.667,72.1667 100,73.5C 86.4137,80.6394 72.247,86.3061 57.5,90.5C 42.7701,86.0891 28.4367,80.5891 14.5,74C 13.1667,72.3333 13.1667,70.6667 14.5,69C 27.1396,63.1738 39.8063,57.6738 52.5,52.5 Z"/></g>
<g><path style="opacity:0.955" fill="#e4e4e4" d="M 11.5,84.5 C 13.1992,84.3398 14.8659,84.5065 16.5,85C 29.7938,91.5433 43.6271,96.7099 58,100.5C 70.8058,97.1474 82.9724,92.3141 94.5,86C 96.5,85.5 98.5,85 100.5,84.5C 103.975,85.2855 104.308,86.7855 101.5,89C 94.1862,92.2976 86.8529,95.631 79.5,99C 72.1494,101.285 64.816,103.452 57.5,105.5C 41.6086,101.984 26.6086,96.317 12.5,88.5C 11.7542,87.2638 11.4208,85.9305 11.5,84.5 Z"/></g>
</svg>
