<?xml version="1.0" encoding="UTF-8"?>
<!DOCTYPE svg PUBLIC "-//W3C//DTD SVG 1.1//EN" "http://www.w3.org/Graphics/SVG/1.1/DTD/svg11.dtd">
<svg xmlns="http://www.w3.org/2000/svg" version="1.1" width="113px" height="113px" style="shape-rendering:geometricPrecision; text-rendering:geometricPrecision; image-rendering:optimizeQuality; fill-rule:evenodd; clip-rule:evenodd" xmlns:xlink="http://www.w3.org/1999/xlink">
<g><path style="opacity:0.969" fill="#efefef" d="M 58.5,24.5 C 57.5,24.5 56.5,24.5 55.5,24.5C 52.8067,21.8035 50.4733,18.8035 48.5,15.5C 54.02,4.93602 59.3533,5.10269 64.5,16C 63.0817,19.2504 61.0817,22.0837 58.5,24.5 Z"/></g>
<g><path style="opacity:0.369" fill="#676767" d="M 55.5,24.5 C 56.5,24.5 57.5,24.5 58.5,24.5C 58.1667,25.1667 57.8333,25.8333 57.5,26.5C 56.8333,26.5 56.1667,26.5 55.5,26.5C 55.5,25.8333 55.5,25.1667 55.5,24.5 Z"/></g>
<g><path style="opacity:0.988" fill="#f8f8f8" d="M 55.5,26.5 C 56.1667,26.5 56.8333,26.5 57.5,26.5C 65.374,31.2646 73.0407,36.2646 80.5,41.5C 80.8333,42.5 81.5,43.1667 82.5,43.5C 82.5,53.5 82.5,63.5 82.5,73.5C 73.7642,77.0348 65.4308,81.3681 57.5,86.5C 56.8333,86.5 56.1667,86.5 55.5,86.5C 47.0844,82.2107 38.9177,77.544 31,72.5C 29.419,62.5367 29.2524,52.5367 30.5,42.5C 31.0998,41.1001 32.0998,40.1001 33.5,39.5C 40.801,35.1801 48.1343,30.8468 55.5,26.5 Z M 51.5,36.5 C 55.4866,36.6518 56.9866,38.6518 56,42.5C 52.6667,45.1667 49.3333,47.8333 46,50.5C 44.8744,54.749 44.2077,59.0823 44,63.5C 38.1135,67.2037 35.6135,65.5371 36.5,58.5C 36.7657,54.1399 37.2657,49.8066 38,45.5C 42.4794,42.3526 46.9794,39.3526 51.5,36.5 Z"/></g>
<g><path style="opacity:0.974" fill="#f4f4f4" d="M 29.5,37.5 C 29.4431,38.609 29.1098,39.609 28.5,40.5C 24.4862,40.6655 20.4862,40.4988 16.5,40C 16.1667,37 15.8333,34 15.5,31C 16.1667,30 16.8333,29 17.5,28C 21.2113,27.1747 24.878,27.3414 28.5,28.5C 29.4066,31.4212 29.7399,34.4212 29.5,37.5 Z"/></g>
<g><path style="opacity:0.973" fill="#f6f6f6" d="M 86.5,40.5 C 85.209,40.7373 84.209,40.404 83.5,39.5C 83.2408,35.7604 83.5741,32.0938 84.5,28.5C 95.643,24.4759 99.4763,28.1426 96,39.5C 92.9433,40.4505 89.7766,40.7839 86.5,40.5 Z"/></g>
<g><path style="opacity:0.529" fill="#898989" d="M 29.5,37.5 C 30.4674,38.8062 31.8007,39.4729 33.5,39.5C 32.0998,40.1001 31.0998,41.1001 30.5,42.5C 29.5,42.1667 28.8333,41.5 28.5,40.5C 29.1098,39.609 29.4431,38.609 29.5,37.5 Z"/></g>
<g><path style="opacity:0.314" fill="#666666" d="M 83.5,39.5 C 84.209,40.404 85.209,40.7373 86.5,40.5C 84.9236,41.1429 83.5903,42.1429 82.5,43.5C 81.5,43.1667 80.8333,42.5 80.5,41.5C 81.7777,41.2178 82.7777,40.5511 83.5,39.5 Z"/></g>
<g><path style="opacity:0.983" fill="#ebebeb" d="M 19.5,72.5 C 22.8333,72.5 26.1667,72.5 29.5,72.5C 32.6524,84.8564 28.4858,88.8564 17,84.5C 14.4711,79.6362 15.3044,75.6362 19.5,72.5 Z"/></g>
<g><path style="opacity:0.984" fill="#e2e2e2" d="M 84.5,72.5 C 95.8698,70.9418 99.2031,75.2751 94.5,85.5C 91.2423,86.4173 87.909,86.7507 84.5,86.5C 83.291,81.7875 83.291,77.1208 84.5,72.5 Z"/></g>
<g><path style="opacity:0.259" fill="#656565" d="M 55.5,86.5 C 56.1667,86.5 56.8333,86.5 57.5,86.5C 57.5,87.1667 57.5,87.8333 57.5,88.5C 56.8333,88.5 56.1667,88.5 55.5,88.5C 55.5,87.8333 55.5,87.1667 55.5,86.5 Z"/></g>
<g><path style="opacity:0.971" fill="#ececec" d="M 55.5,88.5 C 56.1667,88.5 56.8333,88.5 57.5,88.5C 60.1956,91.3876 62.529,94.5542 64.5,98C 59.1122,107.981 53.7789,107.981 48.5,98C 50.2965,94.3799 52.6298,91.2132 55.5,88.5 Z"/></g>
</svg>
