<?xml version="1.0" encoding="UTF-8"?>
<!DOCTYPE svg PUBLIC "-//W3C//DTD SVG 1.1//EN" "http://www.w3.org/Graphics/SVG/1.1/DTD/svg11.dtd">
<svg xmlns="http://www.w3.org/2000/svg" version="1.1" width="113px" height="113px" style="shape-rendering:geometricPrecision; text-rendering:geometricPrecision; image-rendering:optimizeQuality; fill-rule:evenodd; clip-rule:evenodd" xmlns:xlink="http://www.w3.org/1999/xlink">
<g><path style="opacity:0.999" fill="#f5f5f5" d="M 43.5,16.5 C 46.4282,16.4349 49.0948,15.7682 51.5,14.5C 53.9787,13.3773 56.312,13.3773 58.5,14.5C 61.9736,15.5249 65.6403,16.1916 69.5,16.5C 73.6265,16.428 77.6265,15.7613 81.5,14.5C 84.1667,14.8333 86.8333,15.1667 89.5,15.5C 92.3615,16.2471 94.3615,17.9138 95.5,20.5C 95.7376,22.4044 96.7376,23.7377 98.5,24.5C 99.8243,29.5747 99.491,34.5747 97.5,39.5C 98.3824,43.5939 99.5491,47.5939 101,51.5C 101.768,55.9196 101.602,60.2529 100.5,64.5C 99.2318,66.9052 98.5651,69.5718 98.5,72.5C 95.4886,82.5107 89.4886,90.1774 80.5,95.5C 78.326,95.7497 76.6594,96.7497 75.5,98.5C 74.791,99.404 73.791,99.7373 72.5,99.5C 68.8333,100.167 65.1667,100.833 61.5,101.5C 53.2676,102.009 45.2676,101.009 37.5,98.5C 37.0269,97.0937 36.0269,96.427 34.5,96.5C 33.5084,96.6716 32.8417,96.3382 32.5,95.5C 32.0269,94.0937 31.0269,93.427 29.5,93.5C 27.8333,92.5 26.5,91.1667 25.5,89.5C 25.1667,88.5 24.5,87.8333 23.5,87.5C 20.5389,85.5879 18.5389,82.9213 17.5,79.5C 17.7148,77.8212 17.0481,76.8212 15.5,76.5C 14.6993,74.9582 14.366,73.2915 14.5,71.5C 14.5979,69.4471 13.9313,67.7804 12.5,66.5C 11.3825,61.1375 11.3825,55.8042 12.5,50.5C 14.4725,47.9164 15.4725,44.9164 15.5,41.5C 14.441,36.0087 14.441,30.6754 15.5,25.5C 16.4918,23.5439 17.4918,21.5439 18.5,19.5C 21.4906,16.0862 25.324,14.0862 30,13.5C 34.4975,14.675 38.9975,15.675 43.5,16.5 Z M 65.5,29.5 C 65.9731,30.9063 66.9731,31.573 68.5,31.5C 70.0495,32.4408 71.7162,33.1075 73.5,33.5C 74.1667,34.8333 75.1667,35.8333 76.5,36.5C 77.1667,37.8333 78.1667,38.8333 79.5,39.5C 81.6916,42.5498 83.3583,45.8832 84.5,49.5C 85.7678,55.8276 85.7678,62.161 84.5,68.5C 83.6618,68.8417 83.3284,69.5084 83.5,70.5C 82.1103,71.8993 81.1103,73.5659 80.5,75.5C 77.8333,77.5 75.5,79.8333 73.5,82.5C 71.847,82.6596 70.5137,83.3263 69.5,84.5C 67.9731,84.427 66.9731,85.0937 66.5,86.5C 65.5,86.5 64.5,86.5 63.5,86.5C 58.1913,87.5122 52.858,87.5122 47.5,86.5C 47.1667,86.5 46.8333,86.5 46.5,86.5C 43.039,83.9308 39.3723,81.5974 35.5,79.5C 34.9202,77.2512 33.5869,75.5846 31.5,74.5C 30.7729,72.0462 29.7729,69.7128 28.5,67.5C 27.6576,62.213 27.3243,56.8797 27.5,51.5C 29.0198,49.1098 30.0198,46.4432 30.5,43.5C 31.9744,42.5637 32.9744,41.2303 33.5,39.5C 34.9063,39.0269 35.573,38.0269 35.5,36.5C 38.1492,34.86 40.8159,33.1933 43.5,31.5C 45.153,31.3404 46.4863,30.6737 47.5,29.5C 53.4812,28.4471 59.4812,28.4471 65.5,29.5 Z"/></g>
<g><path style="opacity:0.102" fill="#747474" d="M 58.5,14.5 C 62.4885,14.1164 66.1552,14.783 69.5,16.5C 65.6403,16.1916 61.9736,15.5249 58.5,14.5 Z"/></g>
<g><path style="opacity:0.42" fill="#767676" d="M 81.5,14.5 C 84.2933,13.254 86.96,13.5873 89.5,15.5C 86.8333,15.1667 84.1667,14.8333 81.5,14.5 Z"/></g>
<g><path style="opacity:0.443" fill="#7d7d7d" d="M 51.5,14.5 C 49.0948,15.7682 46.4282,16.4349 43.5,16.5C 45.8383,14.9605 48.5049,14.2938 51.5,14.5 Z"/></g>
<g><path style="opacity:0.643" fill="#959595" d="M 18.5,19.5 C 17.4918,21.5439 16.4918,23.5439 15.5,25.5C 15.0246,22.6874 16.0246,20.6874 18.5,19.5 Z"/></g>
<g><path style="opacity:0.396" fill="#8c8c8c" d="M 95.5,20.5 C 97.2624,21.2623 98.2624,22.5956 98.5,24.5C 96.7376,23.7377 95.7376,22.4044 95.5,20.5 Z"/></g>
<g><path style="opacity:0.043" fill="#4c4c4c" d="M 47.5,29.5 C 46.4863,30.6737 45.153,31.3404 43.5,31.5C 44.287,29.8958 45.6203,29.2291 47.5,29.5 Z"/></g>
<g><path style="opacity:0.243" fill="#505050" d="M 65.5,29.5 C 67.0269,29.427 68.0269,30.0937 68.5,31.5C 66.9731,31.573 65.9731,30.9063 65.5,29.5 Z"/></g>
<g><path style="opacity:0.592" fill="#717171" d="M 73.5,33.5 C 75.5,33.5 76.5,34.5 76.5,36.5C 75.1667,35.8333 74.1667,34.8333 73.5,33.5 Z"/></g>
<g><path style="opacity:0.694" fill="#646464" d="M 76.5,36.5 C 78.5,36.5 79.5,37.5 79.5,39.5C 78.1667,38.8333 77.1667,37.8333 76.5,36.5 Z"/></g>
<g><path style="opacity:0.298" fill="#5b5b5b" d="M 35.5,36.5 C 35.573,38.0269 34.9063,39.0269 33.5,39.5C 33.427,37.9731 34.0937,36.9731 35.5,36.5 Z"/></g>
<g><path style="opacity:0.812" fill="#999999" d="M 15.5,41.5 C 15.4725,44.9164 14.4725,47.9164 12.5,50.5C 12.6896,47.145 13.6896,44.145 15.5,41.5 Z"/></g>
<g><path style="opacity:0.306" fill="#595959" d="M 30.5,43.5 C 30.0198,46.4432 29.0198,49.1098 27.5,51.5C 27.4152,48.3511 28.4152,45.6845 30.5,43.5 Z"/></g>
<g><path style="opacity:0.89" fill="#6d6d6d" d="M 27.5,51.5 C 27.3243,56.8797 27.6576,62.213 28.5,67.5C 27.8826,67.3893 27.3826,67.056 27,66.5C 26.1837,61.3158 26.3503,56.3158 27.5,51.5 Z"/></g>
<g><path style="opacity:0.455" fill="#7d7d7d" d="M 100.5,64.5 C 100.938,64.4346 101.272,64.6012 101.5,65C 100.718,67.6719 99.718,70.1719 98.5,72.5C 98.5651,69.5718 99.2318,66.9052 100.5,64.5 Z"/></g>
<g><path style="opacity:0.792" fill="#757575" d="M 84.5,49.5 C 85.2216,49.9175 85.7216,50.5842 86,51.5C 86.1667,53.8333 86.3333,56.1667 86.5,58.5C 86.6852,62.1411 86.0186,65.4744 84.5,68.5C 85.7678,62.161 85.7678,55.8276 84.5,49.5 Z"/></g>
<g><path style="opacity:0.004" fill="#565656" d="M 12.5,66.5 C 13.9313,67.7804 14.5979,69.4471 14.5,71.5C 12.7868,70.3646 12.1201,68.698 12.5,66.5 Z"/></g>
<g><path style="opacity:0.627" fill="#6d6d6d" d="M 83.5,70.5 C 83.7271,72.9328 82.7271,74.5994 80.5,75.5C 81.1103,73.5659 82.1103,71.8993 83.5,70.5 Z"/></g>
<g><path style="opacity:0.824" fill="#7b7b7b" d="M 31.5,74.5 C 33.5869,75.5846 34.9202,77.2512 35.5,79.5C 33.4131,78.4154 32.0798,76.7488 31.5,74.5 Z"/></g>
<g><path style="opacity:0.545" fill="#7d7d7d" d="M 15.5,76.5 C 17.0481,76.8212 17.7148,77.8212 17.5,79.5C 16.5987,78.7095 15.9321,77.7095 15.5,76.5 Z"/></g>
<g><path style="opacity:0.757" fill="#848484" d="M 80.5,75.5 C 79.1667,78.8333 76.8333,81.1667 73.5,82.5C 75.5,79.8333 77.8333,77.5 80.5,75.5 Z"/></g>
<g><path style="opacity:0.427" fill="#707070" d="M 35.5,79.5 C 39.3723,81.5974 43.039,83.9308 46.5,86.5C 41.9113,85.386 38.2446,83.0526 35.5,79.5 Z"/></g>
<g><path style="opacity:0.529" fill="#696969" d="M 69.5,84.5 C 69.0269,85.9063 68.0269,86.573 66.5,86.5C 66.9731,85.0937 67.9731,84.427 69.5,84.5 Z"/></g>
<g><path style="opacity:0.616" fill="#808080" d="M 47.5,86.5 C 52.858,87.5122 58.1913,87.5122 63.5,86.5C 58.1667,89.1667 52.8333,89.1667 47.5,86.5 Z"/></g>
<g><path style="opacity:0.004" fill="#595959" d="M 23.5,87.5 C 24.5,87.8333 25.1667,88.5 25.5,89.5C 24.1667,89.5 23.5,88.8333 23.5,87.5 Z"/></g>
<g><path style="opacity:0.216" fill="#797979" d="M 29.5,93.5 C 31.0269,93.427 32.0269,94.0937 32.5,95.5C 30.9731,95.573 29.9731,94.9063 29.5,93.5 Z"/></g>
<g><path style="opacity:0.106" fill="#666666" d="M 80.5,95.5 C 79.3406,97.2503 77.674,98.2503 75.5,98.5C 76.6594,96.7497 78.326,95.7497 80.5,95.5 Z"/></g>
<g><path style="opacity:0.18" fill="#707070" d="M 34.5,96.5 C 36.0269,96.427 37.0269,97.0937 37.5,98.5C 35.9731,98.573 34.9731,97.9063 34.5,96.5 Z"/></g>
<g><path style="opacity:1" fill="#898989" d="M 37.5,98.5 C 45.2676,101.009 53.2676,102.009 61.5,101.5C 61.5,101.833 61.5,102.167 61.5,102.5C 53.019,103.87 45.019,102.536 37.5,98.5 Z"/></g>
<g><path style="opacity:0.318" fill="#727272" d="M 72.5,99.5 C 69.2006,101.483 65.5339,102.483 61.5,102.5C 61.5,102.167 61.5,101.833 61.5,101.5C 65.1667,100.833 68.8333,100.167 72.5,99.5 Z"/></g>
</svg>
