<?xml version="1.0" encoding="UTF-8"?>
<!DOCTYPE svg PUBLIC "-//W3C//DTD SVG 1.1//EN" "http://www.w3.org/Graphics/SVG/1.1/DTD/svg11.dtd">
<svg xmlns="http://www.w3.org/2000/svg" version="1.1" width="113px" height="113px" style="shape-rendering:geometricPrecision; text-rendering:geometricPrecision; image-rendering:optimizeQuality; fill-rule:evenodd; clip-rule:evenodd" xmlns:xlink="http://www.w3.org/1999/xlink">
<g><path style="opacity:0.999" fill="#f7f7f7" d="M 80.5,21.5 C 78.7211,23.3435 76.3878,24.0102 73.5,23.5C 73.2852,25.1788 73.9519,26.1788 75.5,26.5C 78.5507,29.879 81.5507,33.2123 84.5,36.5C 87.3468,40.61 89.3468,40.2767 90.5,35.5C 92.0453,34.5481 93.712,34.2148 95.5,34.5C 97.4095,35.9746 98.5762,37.9746 99,40.5C 99.6667,52.5 99.6667,64.5 99,76.5C 97.9509,78.6175 96.4509,80.2842 94.5,81.5C 93.1667,81.5 91.8333,81.5 90.5,81.5C 90.5,79.5 90.5,77.5 90.5,75.5C 90.2627,74.209 90.596,73.209 91.5,72.5C 92.6291,70.3718 92.7958,68.0385 92,65.5C 90.7083,64.2089 89.5417,64.2089 88.5,65.5C 86.8874,68.2861 85.054,70.9528 83,73.5C 76.8193,79.2452 70.6526,84.9119 64.5,90.5C 63.5222,90.811 62.8555,91.4777 62.5,92.5C 65.9798,93.8056 69.3132,93.8056 72.5,92.5C 75.9166,90.6276 79.5832,89.6276 83.5,89.5C 81.509,93.6823 78.8424,97.5156 75.5,101C 72.7759,101.27 70.1092,101.77 67.5,102.5C 58.1822,101.454 48.8489,101.287 39.5,102C 37.3073,100.936 35.3073,99.6023 33.5,98C 32.1772,97.1841 31.5106,96.0174 31.5,94.5C 31.5,93.5 31.5,92.5 31.5,91.5C 33.5,91.5 35.5,91.5 37.5,91.5C 39.1172,92.038 40.7839,92.3713 42.5,92.5C 44.2646,93.4614 46.2646,93.7947 48.5,93.5C 49.0838,90.715 48.0838,89.0483 45.5,88.5C 44.4154,86.4131 42.7488,85.0798 40.5,84.5C 37.8353,80.8393 34.502,77.8393 30.5,75.5C 29.0476,74.0603 28.0476,72.3936 27.5,70.5C 27.0269,69.0937 26.0269,68.427 24.5,68.5C 23.984,66.8002 22.984,65.4669 21.5,64.5C 20.3565,67.4977 20.3565,70.4977 21.5,73.5C 21.5,75.1667 21.5,76.8333 21.5,78.5C 20.7321,79.2625 20.2321,80.2625 20,81.5C 19.1841,80.1772 18.0174,79.5106 16.5,79.5C 13.0537,77.3658 11.3871,74.1991 11.5,70C 11.6132,62.561 11.7799,55.061 12,47.5C 12.0303,40.1081 15.197,34.4414 21.5,30.5C 22.9063,30.0269 23.573,29.0269 23.5,27.5C 24.2905,26.5987 25.2905,25.9321 26.5,25.5C 29.0892,24.5806 31.0892,22.914 32.5,20.5C 32.9321,19.2905 33.5987,18.2905 34.5,17.5C 36.4044,17.2624 37.7377,16.2624 38.5,14.5C 50.3262,13.3403 62.3262,13.1737 74.5,14C 77.087,16.0809 79.087,18.5809 80.5,21.5 Z"/></g>
<g><path style="opacity:0.608" fill="#797979" d="M 38.5,14.5 C 37.7377,16.2624 36.4044,17.2624 34.5,17.5C 35.2623,15.7376 36.5956,14.7376 38.5,14.5 Z"/></g>
<g><path style="opacity:0.557" fill="#808080" d="M 32.5,20.5 C 31.0892,22.914 29.0892,24.5806 26.5,25.5C 27.9108,23.086 29.9108,21.4194 32.5,20.5 Z"/></g>
<g><path style="opacity:0.537" fill="#8d8d8d" d="M 80.5,21.5 C 81.404,22.209 81.7373,23.209 81.5,24.5C 78.9899,24.0535 76.9899,24.7202 75.5,26.5C 73.9519,26.1788 73.2852,25.1788 73.5,23.5C 76.3878,24.0102 78.7211,23.3435 80.5,21.5 Z"/></g>
<g><path style="opacity:0.682" fill="#7f7f7f" d="M 23.5,27.5 C 23.573,29.0269 22.9063,30.0269 21.5,30.5C 21.427,28.9731 22.0937,27.9731 23.5,27.5 Z"/></g>
<g><path style="opacity:0.306" fill="#6d6d6d" d="M 95.5,34.5 C 93.712,34.2148 92.0453,34.5481 90.5,35.5C 89.3468,40.2767 87.3468,40.61 84.5,36.5C 85.8471,37.1712 87.0138,37.1712 88,36.5C 88.4935,34.8659 88.6602,33.1992 88.5,31.5C 91.0631,32.0883 93.3964,33.0883 95.5,34.5 Z"/></g>
<g><path style="opacity:0.545" fill="#8a8a8a" d="M 88.5,65.5 C 89.5417,64.2089 90.7083,64.2089 92,65.5C 92.7958,68.0385 92.6291,70.3718 91.5,72.5C 91.6602,70.8008 91.4935,69.1341 91,67.5C 90.5831,66.244 89.7498,65.5774 88.5,65.5 Z"/></g>
<g><path style="opacity:0.573" fill="#6a6a6a" d="M 24.5,68.5 C 26.0269,68.427 27.0269,69.0937 27.5,70.5C 25.9731,70.573 24.9731,69.9063 24.5,68.5 Z"/></g>
<g><path style="opacity:0.318" fill="#4e4e4e" d="M 21.5,73.5 C 22.236,76.6954 22.9027,80.0287 23.5,83.5C 22.1405,84.6653 21.1405,84.332 20.5,82.5C 21.4345,81.4324 21.7678,80.099 21.5,78.5C 21.5,76.8333 21.5,75.1667 21.5,73.5 Z"/></g>
<g><path style="opacity:0.471" fill="#777777" d="M 90.5,75.5 C 90.5,77.5 90.5,79.5 90.5,81.5C 91.8333,81.5 93.1667,81.5 94.5,81.5C 93.3588,82.339 92.0255,83.0057 90.5,83.5C 89.1997,80.6908 89.1997,78.0241 90.5,75.5 Z"/></g>
<g><path style="opacity:0.557" fill="#999999" d="M 21.5,78.5 C 21.7678,80.099 21.4345,81.4324 20.5,82.5C 18.5956,82.2624 17.2623,81.2624 16.5,79.5C 18.0174,79.5106 19.1841,80.1772 20,81.5C 20.2321,80.2625 20.7321,79.2625 21.5,78.5 Z"/></g>
<g><path style="opacity:0.788" fill="#909090" d="M 40.5,84.5 C 42.7488,85.0798 44.4154,86.4131 45.5,88.5C 43.2512,87.9202 41.5846,86.5869 40.5,84.5 Z"/></g>
<g><path style="opacity:0.58" fill="#858585" d="M 37.5,91.5 C 35.5,91.5 33.5,91.5 31.5,91.5C 31.5,92.5 31.5,93.5 31.5,94.5C 30.1634,93.6851 29.1634,92.5185 28.5,91C 30.764,90.7638 32.9307,90.2638 35,89.5C 35.9947,90.0659 36.828,90.7326 37.5,91.5 Z"/></g>
<g><path style="opacity:1" fill="#8c8c8c" d="M 45.5,88.5 C 48.0838,89.0483 49.0838,90.715 48.5,93.5C 46.2646,93.7947 44.2646,93.4614 42.5,92.5C 47.059,92.9909 48.059,91.6576 45.5,88.5 Z"/></g>
<g><path style="opacity:0.4" fill="#8b8b8b" d="M 64.5,90.5 C 66.6353,92.369 69.3019,93.0356 72.5,92.5C 69.3132,93.8056 65.9798,93.8056 62.5,92.5C 62.8555,91.4777 63.5222,90.811 64.5,90.5 Z"/></g>
</svg>
