<?xml version="1.0" encoding="UTF-8"?>
<!DOCTYPE svg PUBLIC "-//W3C//DTD SVG 1.1//EN" "http://www.w3.org/Graphics/SVG/1.1/DTD/svg11.dtd">
<svg xmlns="http://www.w3.org/2000/svg" version="1.1" width="113px" height="113px" style="shape-rendering:geometricPrecision; text-rendering:geometricPrecision; image-rendering:optimizeQuality; fill-rule:evenodd; clip-rule:evenodd" xmlns:xlink="http://www.w3.org/1999/xlink">
<g><path style="opacity:0.989" fill="#f3f3f3" d="M 34.5,16.5 C 48.7373,17.5537 62.904,17.5537 77,16.5C 79.464,17.1608 81.964,17.6608 84.5,18C 85.5536,19.3876 85.7203,20.8876 85,22.5C 73.9345,26.2998 62.9345,30.2998 52,34.5C 51.988,40.751 52.8213,46.9176 54.5,53C 53.886,56.8488 51.5526,59.1822 47.5,60C 37.5988,63.1423 27.5988,65.9756 17.5,68.5C 15.9541,67.7884 14.9541,66.6217 14.5,65C 18.9579,49.7065 23.7913,34.5398 29,19.5C 30.8761,18.3913 32.7095,17.3913 34.5,16.5 Z M 35.5,22.5 C 41.487,21.9773 43.487,24.4773 41.5,30C 34.841,31.822 32.841,29.322 35.5,22.5 Z"/></g>
<g><path style="opacity:0.987" fill="#f4f4f4" d="M 81.5,33.5 C 85.6034,32.7691 89.1034,33.7691 92,36.5C 95.6718,46.6818 98.8385,57.0151 101.5,67.5C 101.065,70.7479 99.3985,73.2479 96.5,75C 90.4702,79.678 84.1369,83.8446 77.5,87.5C 76.5581,87.3918 75.7247,87.0585 75,86.5C 70.0573,72.8335 66.2239,58.8335 63.5,44.5C 63.3898,42.626 64.0564,41.126 65.5,40C 71.1799,38.4274 76.5132,36.2608 81.5,33.5 Z M 74.5,42.5 C 80.992,40.7231 84.6587,43.0564 85.5,49.5C 84.7994,53.6991 82.2994,56.0324 78,56.5C 72.2075,53.0469 71.0408,48.3802 74.5,42.5 Z"/></g>
<g><path style="opacity:0.988" fill="#f4f4f4" d="M 54.5,65.5 C 56.371,65.8588 57.871,66.8588 59,68.5C 61.3397,77.0193 64.173,85.3526 67.5,93.5C 65.5708,98.2663 62.0708,100.933 57,101.5C 50.2709,97.7866 43.7709,93.6199 37.5,89C 32.4684,84.965 27.8017,80.6317 23.5,76C 23.6448,75.228 23.9781,74.5613 24.5,74C 34.8022,71.4566 44.8022,68.6232 54.5,65.5 Z"/></g>
</svg>
