<?xml version="1.0" encoding="UTF-8"?>
<!DOCTYPE svg PUBLIC "-//W3C//DTD SVG 1.1//EN" "http://www.w3.org/Graphics/SVG/1.1/DTD/svg11.dtd">
<svg xmlns="http://www.w3.org/2000/svg" version="1.1" width="113px" height="113px" style="shape-rendering:geometricPrecision; text-rendering:geometricPrecision; image-rendering:optimizeQuality; fill-rule:evenodd; clip-rule:evenodd" xmlns:xlink="http://www.w3.org/1999/xlink">
<g><path style="opacity:0.985" fill="#f9f9f9" d="M 56.5,11.5 C 58.0174,11.5106 59.1841,12.1772 60,13.5C 61.5268,21.4136 63.8601,29.0803 67,36.5C 72.6014,46.0377 77.9348,55.7044 83,65.5C 88.0034,87.4903 79.3367,99.8237 57,102.5C 34.5304,98.5791 26.5304,85.5791 33,63.5C 39.2541,52.6601 45.2541,41.6601 51,30.5C 52.8549,24.1374 54.6882,17.804 56.5,11.5 Z M 38.5,79.5 C 50.8626,84.3952 63.1959,84.3952 75.5,79.5C 77.7394,79.5743 78.7394,80.741 78.5,83C 77.2942,89.2077 73.6275,93.2077 67.5,95C 56.9949,98.2708 47.4949,96.4375 39,89.5C 36.1941,86.0943 36.0275,82.761 38.5,79.5 Z"/></g>
</svg>
