<?xml version="1.0" encoding="UTF-8"?>
<!DOCTYPE svg PUBLIC "-//W3C//DTD SVG 1.1//EN" "http://www.w3.org/Graphics/SVG/1.1/DTD/svg11.dtd">
<svg xmlns="http://www.w3.org/2000/svg" version="1.1" width="113px" height="113px" style="shape-rendering:geometricPrecision; text-rendering:geometricPrecision; image-rendering:optimizeQuality; fill-rule:evenodd; clip-rule:evenodd" xmlns:xlink="http://www.w3.org/1999/xlink">
<g><path style="opacity:0.988" fill="#f7f7f7" d="M 46.5,12.5 C 60.2256,9.47525 71.7256,13.1419 81,23.5C 81.6667,25.1667 81.6667,26.8333 81,28.5C 65.8556,40.784 50.0223,41.6173 33.5,31C 32.2604,29.2699 31.2604,27.4366 30.5,25.5C 32.2018,22.8013 34.2018,20.3013 36.5,18C 40.0561,16.3924 43.3894,14.5591 46.5,12.5 Z"/></g>
<g><path style="opacity:0.99" fill="#f8f8f8" d="M 86.5,36.5 C 90.5257,36.6766 93.359,38.6766 95,42.5C 98.8497,55.4181 98.1831,68.0848 93,80.5C 90.497,83.5017 88.497,86.8351 87,90.5C 83.98,92.1996 80.98,93.8663 78,95.5C 72.1159,81.6827 67.2825,67.3494 63.5,52.5C 63.4858,50.4075 64.1524,48.5741 65.5,47C 73.4083,45.1002 80.4083,41.6002 86.5,36.5 Z"/></g>
<g><path style="opacity:0.989" fill="#f9f9f9" d="M 21.5,36.5 C 22.8734,36.3433 24.2068,36.51 25.5,37C 31.5676,42.1997 38.5676,45.533 46.5,47C 48.3933,49.9172 48.8933,53.0838 48,56.5C 44.1797,68.1134 40.513,79.78 37,91.5C 36.059,93.0614 34.8924,94.3947 33.5,95.5C 24.0978,90.2422 18.2644,82.2422 16,71.5C 14.3638,62.0383 14.6971,52.3716 17,42.5C 18.332,40.34 19.832,38.34 21.5,36.5 Z"/></g>
<g><path style="opacity:0.949" fill="#e7e7e7" d="M 52.5,71.5 C 54.8568,71.3367 57.1902,71.5034 59.5,72C 62.1667,73.6667 62.1667,75.3333 59.5,77C 56.8333,77.6667 54.1667,77.6667 51.5,77C 50.2427,74.9235 50.576,73.0902 52.5,71.5 Z"/></g>
<g><path style="opacity:0.96" fill="#f2f2f2" d="M 46.5,85.5 C 52.8333,85.5 59.1667,85.5 65.5,85.5C 65.7394,87.4672 65.4061,89.3005 64.5,91C 58.8333,91.6667 53.1667,91.6667 47.5,91C 45.1695,89.5125 44.8362,87.6791 46.5,85.5 Z"/></g>
</svg>
