<?xml version="1.0" encoding="UTF-8"?>
<!DOCTYPE svg PUBLIC "-//W3C//DTD SVG 1.1//EN" "http://www.w3.org/Graphics/SVG/1.1/DTD/svg11.dtd">
<svg xmlns="http://www.w3.org/2000/svg" version="1.1" width="113px" height="113px" style="shape-rendering:geometricPrecision; text-rendering:geometricPrecision; image-rendering:optimizeQuality; fill-rule:evenodd; clip-rule:evenodd" xmlns:xlink="http://www.w3.org/1999/xlink">
<g><path style="opacity:0.982" fill="#f5f5f5" d="M 43.5,17.5 C 46.4475,17.2229 49.2809,17.5562 52,18.5C 53.312,30.478 53.1453,42.478 51.5,54.5C 47.7358,56.237 44.5692,55.5703 42,52.5C 41.3333,42.1667 41.3333,31.8333 42,21.5C 42.4101,20.0993 42.9101,18.766 43.5,17.5 Z"/></g>
<g><path style="opacity:0.975" fill="#f8f8f8" d="M 64.5,17.5 C 68.6396,16.7146 71.973,17.8812 74.5,21C 73.5853,24.5884 73.5853,28.255 74.5,32C 74.3395,35.4693 73.6728,38.8027 72.5,42C 71,42.1667 69.5,42.3333 68,42.5C 66.0194,42.3708 64.3528,41.7042 63,40.5C 62.3333,33.5 62.3333,26.5 63,19.5C 63.7172,18.9558 64.2172,18.2891 64.5,17.5 Z"/></g>
<g><path style="opacity:0.975" fill="#f9f9f9" d="M 24.5,17.5 C 27.0644,17.9787 29.5644,18.6453 32,19.5C 32.6667,30.8333 32.6667,42.1667 32,53.5C 28.6286,56.017 25.2953,56.017 22,53.5C 21.3333,42.5 21.3333,31.5 22,20.5C 22.6979,19.3094 23.5313,18.3094 24.5,17.5 Z"/></g>
<g><path style="opacity:0.975" fill="#f9f9f9" d="M 85.5,17.5 C 88.6852,17.0196 91.5185,17.6863 94,19.5C 94.8132,27.0799 94.6466,34.5799 93.5,42C 90.2397,42.7835 87.0731,42.6168 84,41.5C 82.9183,33.2338 83.4183,25.2338 85.5,17.5 Z"/></g>
<g><path style="opacity:0.984" fill="#f3f3f3" d="M 70.5,50.5 C 78.4202,50.3149 86.4202,50.6482 94.5,51.5C 94.8256,55.8839 94.4922,60.2172 93.5,64.5C 84.4703,65.3674 75.4703,65.7008 66.5,65.5C 64.4741,64.6303 63.1408,63.1303 62.5,61C 63.2822,58.2595 63.7822,55.4262 64,52.5C 66.277,51.8828 68.4437,51.2161 70.5,50.5 Z"/></g>
<g><path style="opacity:0.987" fill="#fbfbfb" d="M 24.5,67.5 C 33.8393,67.3335 43.1726,67.5002 52.5,68C 53.5,70.3333 55.1667,72 57.5,73C 69.5139,73.1674 81.5139,73.6674 93.5,74.5C 95.8231,80.0177 94.1564,83.851 88.5,86C 73.8175,92.337 58.4841,96.0036 42.5,97C 35.4558,94.0623 28.9558,90.229 23,85.5C 21.4372,80.2825 21.1038,74.9491 22,69.5C 22.9947,68.9341 23.828,68.2674 24.5,67.5 Z"/></g>
</svg>
