<?xml version="1.0" encoding="UTF-8"?>
<!DOCTYPE svg PUBLIC "-//W3C//DTD SVG 1.1//EN" "http://www.w3.org/Graphics/SVG/1.1/DTD/svg11.dtd">
<svg xmlns="http://www.w3.org/2000/svg" version="1.1" width="113px" height="113px" style="shape-rendering:geometricPrecision; text-rendering:geometricPrecision; image-rendering:optimizeQuality; fill-rule:evenodd; clip-rule:evenodd" xmlns:xlink="http://www.w3.org/1999/xlink">
<g><path style="opacity:0.987" fill="#f7f7f7" d="M 40.5,17.5 C 53.76,16.2631 60.5934,22.2631 61,35.5C 59.9511,42.8823 55.7845,47.3823 48.5,49C 37.353,49.6925 30.6863,44.5258 28.5,33.5C 29.1765,25.5114 33.1765,20.1781 40.5,17.5 Z"/></g>
<g><path style="opacity:0.978" fill="#f3f3f3" d="M 77.5,45.5 C 84.3483,45.4129 88.0149,48.7462 88.5,55.5C 86.7966,63.3547 82.1299,65.8547 74.5,63C 67.3314,55.8456 68.3314,50.0123 77.5,45.5 Z"/></g>
<g><path style="opacity:0.987" fill="#f8f8f8" d="M 60.5,71.5 C 63.5338,72.1194 66.5338,72.9527 69.5,74C 71.5871,77.5082 73.9204,80.8416 76.5,84C 84.8114,84.7708 92.8114,86.7708 100.5,90C 103.167,92 103.167,94 100.5,96C 87.3754,100.297 73.8754,102.131 60,101.5C 48.0239,101.774 36.1905,100.607 24.5,98C 19.4821,97.2493 17.8154,94.5826 19.5,90C 27.4566,86.4847 35.7899,84.4847 44.5,84C 45.9308,83.5348 47.0975,82.7014 48,81.5C 48.3034,79.1116 49.1367,76.9449 50.5,75C 53.7761,73.3077 57.1095,72.141 60.5,71.5 Z"/></g>
</svg>
