<?xml version="1.0" encoding="UTF-8"?>
<!DOCTYPE svg PUBLIC "-//W3C//DTD SVG 1.1//EN" "http://www.w3.org/Graphics/SVG/1.1/DTD/svg11.dtd">
<svg xmlns="http://www.w3.org/2000/svg" version="1.1" width="113px" height="113px" style="shape-rendering:geometricPrecision; text-rendering:geometricPrecision; image-rendering:optimizeQuality; fill-rule:evenodd; clip-rule:evenodd" xmlns:xlink="http://www.w3.org/1999/xlink">
<g><path style="opacity:0.984" fill="#f5f5f5" d="M 53.5,10.5 C 56.6727,10.4012 59.6727,11.0678 62.5,12.5C 66.2626,16.7653 70.2626,20.932 74.5,25C 80.5409,26.5753 86.5409,28.242 92.5,30C 95.7384,32.1447 97.405,35.1447 97.5,39C 96.2302,44.8069 94.5635,50.4735 92.5,56C 94.0195,62.2059 95.6861,68.3725 97.5,74.5C 96.9676,78.5442 94.9676,81.7109 91.5,84C 85.757,85.0575 80.0903,86.3909 74.5,88C 70.4729,91.3658 67.1396,95.3658 64.5,100C 54.0062,104.596 46.3395,101.596 41.5,91C 34.9463,87.2794 27.9463,84.9461 20.5,84C 16.8521,81.6792 14.8521,78.3459 14.5,74C 16.1696,68.3255 17.8363,62.6588 19.5,57C 18.4017,51.1448 16.735,45.4781 14.5,40C 14.9188,34.4943 17.5855,30.4943 22.5,28C 27.9219,27.4298 33.2552,26.4298 38.5,25C 42.5,20.6667 46.5,16.3333 50.5,12C 51.7375,11.7679 52.7375,11.2679 53.5,10.5 Z M 53.5,26.5 C 58.2087,26.6719 61.8754,28.8386 64.5,33C 69.8344,36.1681 75.5011,38.5014 81.5,40C 82.7342,44.2231 82.4008,48.3897 80.5,52.5C 80.6467,59.06 81.1467,65.7267 82,72.5C 77.065,73.9599 72.2317,75.7932 67.5,78C 63.954,81.5543 60.2874,85.0543 56.5,88.5C 52.6989,84.8716 48.6989,81.3716 44.5,78C 40.4791,75.6597 36.1457,74.3264 31.5,74C 30.0203,72.7009 29.3536,71.0342 29.5,69C 30.3612,64.5276 31.0279,60.0276 31.5,55.5C 30.2371,50.5576 29.7371,45.5576 30,40.5C 35.643,38.7643 41.143,36.5976 46.5,34C 49.3489,31.9247 51.6822,29.4247 53.5,26.5 Z"/></g>
</svg>
